<svg width="58" height="27" viewBox="0 0 58 27" fill="none" xmlns="http://www.w3.org/2000/svg">
<path d="M8.84766 21.0156C8.18359 21.0156 7.63672 20.9635 7.20703 20.8594C6.79036 20.7422 6.44531 20.5469 6.17188 20.2734C5.89844 20 5.70312 19.6549 5.58594 19.2383C5.48177 18.8216 5.42969 18.2747 5.42969 17.5977V8.86719C5.42969 8.17708 5.48177 7.6237 5.58594 7.20703C5.70312 6.77734 5.89844 6.42578 6.17188 6.15234C6.43229 5.87891 6.77734 5.6901 7.20703 5.58594C7.63672 5.46875 8.20312 5.41016 8.90625 5.41016H42.6953C43.3594 5.41016 43.8997 5.46875 44.3164 5.58594C44.7461 5.6901 45.0977 5.87891 45.3711 6.15234C45.6445 6.42578 45.8333 6.77083 45.9375 7.1875C46.0547 7.60417 46.1133 8.15104 46.1133 8.82812V17.5977C46.1133 18.8737 45.8659 19.7656 45.3711 20.2734C45.0977 20.5469 44.7461 20.7422 44.3164 20.8594C43.8997 20.9635 43.3594 21.0156 42.6953 21.0156H8.84766ZM10.4102 26.4258C8.74349 26.4258 7.22005 26.2956 5.83984 26.0352C4.47266 25.7617 3.28776 25.1237 2.28516 24.1211C1.28255 23.1315 0.651042 21.9531 0.390625 20.5859C0.130208 19.2057 0 17.6823 0 16.0156V10.3516C0 8.72396 0.130208 7.22656 0.390625 5.85938C0.664062 4.49219 1.29557 3.30729 2.28516 2.30469C3.28776 1.3151 4.47266 0.683594 5.83984 0.410156C7.22005 0.136719 8.73047 0 10.3711 0H41.1133C42.7799 0 44.3034 0.136719 45.6836 0.410156C47.0638 0.670573 48.2552 1.30208 49.2578 2.30469C50.2474 3.29427 50.8724 4.47917 51.1328 5.85938C51.4062 7.22656 51.543 8.74349 51.543 10.4102V16.0156C51.543 17.6823 51.4062 19.2057 51.1328 20.5859C50.8724 21.9531 50.2474 23.1315 49.2578 24.1211C48.2552 25.1237 47.0638 25.7617 45.6836 26.0352C44.3034 26.2956 42.7799 26.4258 41.1133 26.4258H10.4102ZM9.88281 23.2812H41.6602C42.6628 23.2812 43.6458 23.1901 44.6094 23.0078C45.5859 22.8125 46.3672 22.4219 46.9531 21.8359C47.5521 21.237 47.9427 20.4622 48.125 19.5117C48.3073 18.5482 48.3984 17.5586 48.3984 16.543V9.86328C48.3984 8.86068 48.3073 7.88411 48.125 6.93359C47.9427 5.97005 47.5521 5.1888 46.9531 4.58984C46.3672 4.00391 45.5859 3.61979 44.6094 3.4375C43.6458 3.24219 42.6628 3.14453 41.6602 3.14453H9.94141C8.91276 3.14453 7.90365 3.23568 6.91406 3.41797C5.9375 3.60026 5.15625 3.99089 4.57031 4.58984C3.98438 5.17578 3.60026 5.95703 3.41797 6.93359C3.23568 7.89714 3.14453 8.89323 3.14453 9.92188V16.543C3.14453 17.5586 3.23568 18.5482 3.41797 19.5117C3.60026 20.4622 3.98438 21.237 4.57031 21.8359C5.16927 22.4219 5.95052 22.8125 6.91406 23.0078C7.89062 23.1901 8.88021 23.2812 9.88281 23.2812ZM54.1992 18.2617V8.16406C54.7201 8.1901 55.2604 8.41797 55.8203 8.84766C56.3802 9.27734 56.849 9.86328 57.2266 10.6055C57.6172 11.3477 57.8125 12.2135 57.8125 13.2031C57.8125 14.2057 57.6172 15.0781 57.2266 15.8203C56.849 16.5625 56.3802 17.1484 55.8203 17.5781C55.2604 17.9948 54.7201 18.2227 54.1992 18.2617Z" fill="white"/>
</svg>
