<svg width="38" height="37" viewBox="0 0 38 37" fill="none" xmlns="http://www.w3.org/2000/svg">
<path d="M8.35938 36.875C6.8099 36.875 5.40365 36.5365 4.14062 35.8594C2.8776 35.1953 1.86849 34.2578 1.11328 33.0469C0.371094 31.849 0 30.4492 0 28.8477C0 27.2461 0.371094 25.8464 1.11328 24.6484C1.86849 23.4375 2.8776 22.5 4.14062 21.8359C5.40365 21.1589 6.8099 20.8203 8.35938 20.8203H28.8867C30.4362 20.8203 31.8424 21.1589 33.1055 21.8359C34.3685 22.5 35.3711 23.4375 36.1133 24.6484C36.8685 25.8464 37.2461 27.2461 37.2461 28.8477C37.2461 30.4492 36.8685 31.849 36.1133 33.0469C35.3711 34.2578 34.3685 35.1953 33.1055 35.8594C31.8424 36.5365 30.4362 36.875 28.8867 36.875H8.35938ZM29.3945 33.9258C30.319 33.9258 31.1654 33.6979 31.9336 33.2422C32.7018 32.7865 33.3138 32.168 33.7695 31.3867C34.2253 30.6055 34.4596 29.7461 34.4727 28.8086C34.4727 27.8841 34.2448 27.0443 33.7891 26.2891C33.3333 25.5208 32.7214 24.9089 31.9531 24.4531C31.1849 23.9974 30.332 23.7695 29.3945 23.7695C28.457 23.7695 27.6042 23.9974 26.8359 24.4531C26.0677 24.9089 25.4557 25.5208 25 26.2891C24.5573 27.0573 24.3359 27.9036 24.3359 28.8281C24.3359 29.7656 24.5573 30.6185 25 31.3867C25.4557 32.1549 26.0677 32.7669 26.8359 33.2227C27.6042 33.6784 28.457 33.9128 29.3945 33.9258ZM9.16016 17.8125C7.48047 17.8125 5.94401 17.4414 4.55078 16.6992C3.17057 15.957 2.0638 14.9154 1.23047 13.5742C0.410156 12.2331 0 10.6771 0 8.90625C0 7.13542 0.410156 5.57943 1.23047 4.23828C2.0638 2.89714 3.17057 1.85547 4.55078 1.11328C5.94401 0.371094 7.48047 0 9.16016 0H28.0859C29.7656 0 31.2956 0.371094 32.6758 1.11328C34.069 1.85547 35.1758 2.89714 35.9961 4.23828C36.8294 5.57943 37.2461 7.13542 37.2461 8.90625C37.2461 10.6771 36.8294 12.2331 35.9961 13.5742C35.1758 14.9154 34.069 15.957 32.6758 16.6992C31.2956 17.4414 29.7656 17.8125 28.0859 17.8125H9.16016ZM9.16016 14.8633H28.0859C29.1797 14.8633 30.1953 14.6159 31.1328 14.1211C32.0833 13.6133 32.8451 12.9167 33.418 12.0312C34.0039 11.1328 34.2969 10.0911 34.2969 8.90625C34.2969 7.72135 34.0039 6.6862 33.418 5.80078C32.8451 4.90234 32.0833 4.20573 31.1328 3.71094C30.1953 3.20312 29.1797 2.94922 28.0859 2.94922H9.16016C8.06641 2.94922 7.04427 3.20312 6.09375 3.71094C5.15625 4.20573 4.39453 4.90234 3.80859 5.80078C3.23568 6.6862 2.94922 7.72135 2.94922 8.90625C2.94922 10.0911 3.23568 11.1328 3.80859 12.0312C4.39453 12.9167 5.15625 13.6133 6.09375 14.1211C7.04427 14.6159 8.06641 14.8633 9.16016 14.8633ZM9.16016 13.5352C8.30078 13.5352 7.51953 13.3268 6.81641 12.9102C6.11328 12.4935 5.55339 11.9336 5.13672 11.2305C4.73307 10.5273 4.53125 9.74609 4.53125 8.88672C4.53125 8.04036 4.73307 7.26562 5.13672 6.5625C5.55339 5.85938 6.11328 5.29948 6.81641 4.88281C7.51953 4.46615 8.30078 4.25781 9.16016 4.25781C10.0195 4.25781 10.8008 4.46615 11.5039 4.88281C12.2201 5.28646 12.7865 5.83984 13.2031 6.54297C13.6198 7.23307 13.8216 8.00781 13.8086 8.86719C13.8086 9.72656 13.5938 10.5143 13.1641 11.2305C12.7474 11.9336 12.1875 12.5 11.4844 12.9297C10.7943 13.3464 10.0195 13.5482 9.16016 13.5352Z" fill="white"/>
</svg>
