<svg width="45" height="33" viewBox="0 0 45 33" fill="none" xmlns="http://www.w3.org/2000/svg">
<path d="M22.4805 32.4609C22.2591 32.4609 22.0378 32.3958 21.8164 32.2656C21.5951 32.1354 21.2956 31.888 20.918 31.5234L16.1719 26.9531C16.0156 26.8099 15.918 26.6536 15.8789 26.4844C15.8529 26.3151 15.8854 26.1523 15.9766 25.9961C16.6146 25.1497 17.5065 24.4076 18.6523 23.7695C19.7982 23.1315 21.0742 22.8125 22.4805 22.8125C23.8477 22.8125 25.0977 23.1185 26.2305 23.7305C27.3763 24.3424 28.2682 25.0586 28.9062 25.8789C29.0495 26.0482 29.1016 26.237 29.0625 26.4453C29.0365 26.6406 28.9518 26.8099 28.8086 26.9531L24.043 31.5234C23.6654 31.901 23.3659 32.1484 23.1445 32.2656C22.9232 32.3958 22.7018 32.4609 22.4805 32.4609ZM11.0547 21.8359L8.02734 18.8086C7.85807 18.6393 7.76693 18.457 7.75391 18.2617C7.75391 18.0664 7.82552 17.8841 7.96875 17.7148C8.95833 16.5039 10.1953 15.4232 11.6797 14.4727C13.1641 13.5221 14.8242 12.7734 16.6602 12.2266C18.5091 11.6667 20.4492 11.3867 22.4805 11.3867C24.5117 11.3867 26.4453 11.6667 28.2812 12.2266C30.1302 12.7734 31.7969 13.5221 33.2812 14.4727C34.7786 15.4232 36.0156 16.5039 36.9922 17.7148C37.1354 17.8841 37.2005 18.0729 37.1875 18.2812C37.1745 18.4766 37.0898 18.6523 36.9336 18.8086L33.9062 21.8164C33.6979 22.0117 33.4766 22.1094 33.2422 22.1094C33.0208 22.1094 32.819 22.0117 32.6367 21.8164C31.4388 20.5143 29.9414 19.4336 28.1445 18.5742C26.3477 17.7018 24.4596 17.2721 22.4805 17.2852C20.5273 17.2721 18.6523 17.6888 16.8555 18.5352C15.0586 19.3815 13.5742 20.4557 12.4023 21.7578C12.207 21.9661 11.9857 22.0833 11.7383 22.1094C11.4909 22.1224 11.263 22.0312 11.0547 21.8359ZM2.94922 13.6719L0.253906 10.9375C0.0976562 10.7552 0.0130208 10.5664 0 10.3711C0 10.1758 0.0651042 9.99349 0.195312 9.82422C1.71875 7.9362 3.64583 6.25 5.97656 4.76562C8.30729 3.28125 10.8854 2.11589 13.7109 1.26953C16.5365 0.423177 19.4596 0 22.4805 0C25.5013 0 28.4245 0.429688 31.25 1.28906C34.0755 2.13542 36.6536 3.30078 38.9844 4.78516C41.3151 6.25651 43.2422 7.9362 44.7656 9.82422C44.9089 9.99349 44.974 10.1758 44.9609 10.3711C44.9609 10.5664 44.8763 10.7552 44.707 10.9375L42.0117 13.6328C41.8164 13.8281 41.6016 13.9323 41.3672 13.9453C41.1328 13.9453 40.9245 13.8542 40.7422 13.6719C38.3594 11.1198 35.612 9.17969 32.5 7.85156C29.388 6.52344 26.0482 5.85938 22.4805 5.85938C18.9388 5.85938 15.612 6.52344 12.5 7.85156C9.40104 9.16667 6.65365 11.1003 4.25781 13.6523C4.07552 13.8477 3.86068 13.9518 3.61328 13.9648C3.36589 13.9648 3.14453 13.8672 2.94922 13.6719Z" fill="white"/>
</svg>
