<svg width="24" height="24" viewBox="0 0 24 24" fill="none" xmlns="http://www.w3.org/2000/svg">
<g clip-path="url(#clip0_4_212)">
<path d="M20.527 4.217L14.5 0.737C13.7394 0.299622 12.8774 0.0694389 12 0.0694389C11.1226 0.0694389 10.2606 0.299622 9.50002 0.737L3.47302 4.217C2.7139 4.65691 2.0835 5.28832 1.6448 6.04815C1.2061 6.80798 0.974458 7.66962 0.973022 8.547V15.507C0.974485 16.3845 1.20613 17.2463 1.64481 18.0063C2.0835 18.7662 2.71389 19.3978 3.47302 19.838L9.50002 23.317C10.2605 23.7547 11.1226 23.985 12 23.985C12.8775 23.985 13.7395 23.7547 14.5 23.317L20.527 19.838C21.2862 19.3978 21.9165 18.7662 22.3552 18.0063C22.7939 17.2463 23.0256 16.3845 23.027 15.507V8.547C23.0256 7.66962 22.7939 6.80798 22.3552 6.04815C21.9165 5.28832 21.2861 4.65691 20.527 4.217ZM10.5 2.47C10.9561 2.2067 11.4734 2.06808 12 2.06808C12.5266 2.06808 13.044 2.2067 13.5 2.47L19.527 5.949C19.6798 6.0456 19.8235 6.15606 19.956 6.279L13.763 9.854C13.2269 10.1631 12.6189 10.3258 12 10.3258C11.3812 10.3258 10.7732 10.1631 10.237 9.854L4.04402 6.279C4.17659 6.15606 4.3202 6.0456 4.47302 5.949L10.5 2.47ZM4.47302 18.105C4.01723 17.8409 3.63878 17.4618 3.37554 17.0055C3.11229 16.5492 2.97349 16.0318 2.97302 15.505V8.547C2.97997 8.36684 3.00374 8.18773 3.04402 8.012L9.23702 11.587C9.78397 11.8981 10.3803 12.1129 11 12.222V21.791C10.8273 21.7381 10.6599 21.6691 10.5 21.585L4.47302 18.105ZM21.027 15.505C21.0266 16.0318 20.8878 16.5492 20.6245 17.0055C20.3613 17.4618 19.9828 17.8409 19.527 18.105L13.5 21.585C13.3402 21.6691 13.1728 21.7381 13 21.791V12.222C13.6197 12.1129 14.2161 11.8981 14.763 11.587L20.956 8.012C20.9963 8.18773 21.0201 8.36684 21.027 8.547V15.505Z" fill="#0B2155"/>
</g>
<defs>
<clipPath id="clip0_4_212">
<rect width="24" height="24" fill="white"/>
</clipPath>
</defs>
</svg>
