<svg width="24" height="24" viewBox="0 0 24 24" fill="none" xmlns="http://www.w3.org/2000/svg">
<g clip-path="url(#clip0_4_204)">
<path d="M22.0569 5.22997L14.6829 1.71697C13.0597 0.747411 11.0394 0.730207 9.39991 1.67197L1.94294 5.22997C1.91496 5.24399 1.88594 5.25899 1.85894 5.27497C0.0893152 6.28682 -0.525029 8.54165 0.486815 10.3113C0.829799 10.9112 1.33432 11.4027 1.94294 11.73L3.99996 12.71V17.61C4.00117 19.8011 5.42688 21.7368 7.51896 22.388C8.97485 22.8092 10.4845 23.0154 12 23C13.5153 23.017 15.0249 22.8125 16.481 22.393C18.5731 21.7419 19.9988 19.8061 20 17.615V12.708L22 11.752V20C22 20.5522 22.4477 20.9999 23 20.9999C23.5523 20.9999 24 20.5522 24 20V7.99996C24.0066 6.82569 23.0794 5.74091 22.0569 5.22997ZM17.9999 17.615C18.0004 18.9256 17.1501 20.0848 15.8999 20.478C14.6321 20.8402 13.3184 21.0161 11.9999 21C10.6815 21.0161 9.36771 20.8402 8.09992 20.478C6.84972 20.0848 5.99941 18.9256 5.99992 17.615V13.663L9.31694 15.243C10.1354 15.729 11.0701 15.9844 12.022 15.982C12.928 15.9884 13.8187 15.7486 14.599 15.288L17.9999 13.663V17.615ZM21.1999 9.92497L13.6579 13.525C12.6063 14.1373 11.3029 14.12 10.2679 13.48L2.88892 9.96997C2.06641 9.52644 1.75919 8.50011 2.20272 7.67764C2.35272 7.39949 2.57763 7.16891 2.85194 7.01197L10.3469 3.43199C11.3988 2.82102 12.7016 2.83832 13.7369 3.47699L21.1109 6.98999C21.6532 7.29111 21.9925 7.85975 21.9999 8.48C22.0009 9.06754 21.6984 9.61391 21.1999 9.92497Z" fill="#0B2155"/>
</g>
<defs>
<clipPath id="clip0_4_204">
<rect width="24" height="24" fill="white"/>
</clipPath>
</defs>
</svg>
