<svg width="24" height="24" viewBox="0 0 24 24" fill="none" xmlns="http://www.w3.org/2000/svg">
<g clip-path="url(#clip0_4_207)">
<path d="M5.374 18.455C5.118 18.455 4.862 18.357 4.667 18.162C4.276 17.771 4.276 17.139 4.667 16.748L8.708 12.707C9.098 12.317 9.098 11.683 8.708 11.293L4.667 7.252C4.276 6.861 4.276 6.229 4.667 5.838C5.058 5.447 5.69 5.447 6.081 5.838L10.122 9.879C11.292 11.049 11.292 12.951 10.122 14.121L6.081 18.162C5.886 18.357 5.63 18.455 5.374 18.455ZM24 19V5C24 2.243 21.757 0 19 0H5C2.243 0 0 2.243 0 5V19C0 21.757 2.243 24 5 24H19C21.757 24 24 21.757 24 19ZM19 2C20.654 2 22 3.346 22 5V19C22 20.654 20.654 22 19 22H5C3.346 22 2 20.654 2 19V5C2 3.346 3.346 2 5 2H19ZM20 17C20 16.447 19.553 16 19 16H12C11.448 16 11 16.447 11 17C11 17.553 11.448 18 12 18H19C19.553 18 20 17.553 20 17Z" fill="#0B2155"/>
</g>
<defs>
<clipPath id="clip0_4_207">
<rect width="24" height="24" fill="white"/>
</clipPath>
</defs>
</svg>
